<svg viewBox="124 197 295 107" xmlns="http://www.w3.org/2000/svg">
  <defs>
    <clipPath id="archInner">
      <ellipse cx="180" cy="256" rx="38" ry="25"/>
    </clipPath>
  </defs>

  <!-- Accent circle -->
  <circle cx="222" cy="214" r="13" fill="#46A4D6"/>

  <!-- Light-blue vertical stripes inside the arch -->
  <g clip-path="url(#archInner)" fill="#46A4D6">
    <rect x="153" y="226" width="6" height="32"/>
    <rect x="170" y="226" width="6" height="32"/>
    <rect x="188" y="226" width="6" height="32"/>
    <rect x="205" y="226" width="6" height="32"/>
  </g>

  <!-- Navy arch band -->
  <path d="M 129 256 A 51 37 0 0 1 231 256 L 218 256 A 38 25 0 0 0 142 256 Z" fill="#07223B"/>

  <!-- Bridge deck + end caps -->
  <rect x="128" y="254" width="105" height="10" fill="#07223B"/>
  <rect x="128" y="254" width="7" height="13" fill="#07223B"/>
  <rect x="226" y="254" width="7" height="13" fill="#07223B"/>

  <!-- Lower piers + under-arch opening -->
  <path d="M 133 263 L 133 291 L 150 291 L 150 277 Q 151 264 179 263 Q 208 264 210 277 L 210 291 L 229 291 L 229 263 Z" fill="#07223B"/>

  <!-- Text (Montserrat Bold, outlined) -->
  <path transform="translate(250,226)" d="M6.2700000000000005 0.0V-15.62H0.11V-19.25H16.885V-15.62H10.725V0.0ZM16.94 0.0V-14.795H21.0375V-12.8425Q22.605 -15.015 26.125 -15.015V-11.055Q25.575000000000003 -11.11 25.1625 -11.11Q23.375 -11.11 22.302500000000002 -10.10625Q21.23 -9.102500000000001 21.23 -6.985V0.0ZM35.09 0.0V-1.815Q33.8525 0.22 30.58 0.22Q27.9675 0.22 26.51 -1.0587499999999999Q25.052500000000002 -2.3375 25.052500000000002 -4.2625Q25.052500000000002 -6.215 26.5375 -7.4525Q28.0225 -8.69 31.405 -8.69H34.815Q34.815 -10.065 33.97625 -10.835Q33.1375 -11.605 31.405 -11.605Q30.2225 -11.605 29.08125 -11.23375Q27.94 -10.8625 27.1425 -10.23L25.6025 -13.227500000000001Q26.8125 -14.08 28.5175 -14.5475Q30.2225 -15.015 31.9825 -15.015Q35.365 -15.015 37.235 -13.40625Q39.105000000000004 -11.7975 39.105000000000004 -8.4425V0.0ZM34.815 -4.675V-6.1875H31.872500000000002Q30.36 -6.1875 29.79625 -5.6925Q29.2325 -5.1975 29.2325 -4.455Q29.2325 -3.63 29.87875 -3.1487499999999997Q30.525 -2.6675 31.6525 -2.6675Q32.725 -2.6675 33.5775 -3.17625Q34.43 -3.685 34.815 -4.675ZM41.277499999999996 0.0V-14.795H45.375V-13.035Q46.2275 -13.9975 47.4925 -14.506250000000001Q48.7575 -15.015 50.269999999999996 -15.015Q52.03 -15.015 53.41875 -14.31375Q54.8075 -13.6125 55.605000000000004 -12.16875Q56.4025 -10.725 56.4025 -8.47V0.0H52.1125V-7.81Q52.1125 -9.5975 51.315 -10.45Q50.5175 -11.3025 49.115 -11.3025Q47.575 -11.3025 46.571250000000006 -10.32625Q45.5675 -9.35 45.5675 -7.315V0.0ZM63.5525 0.22Q61.655 0.22 59.90875 -0.23375Q58.1625 -0.6875 57.144999999999996 -1.375L58.574999999999996 -4.455Q59.565 -3.795 60.9675 -3.41Q62.37 -3.025 63.7175 -3.025Q65.2025 -3.025 65.82124999999999 -3.3825000000000003Q66.44 -3.74 66.44 -4.3725Q66.44 -5.0875 65.56 -5.335000000000001Q64.68 -5.5825000000000005 63.442499999999995 -5.775Q62.4525 -5.9125 61.42125 -6.1325Q60.39 -6.3525 59.49625 -6.7925Q58.6025 -7.2325 58.052499999999995 -8.057500000000001Q57.5025 -8.8825 57.5025 -10.23Q57.5025 -12.32 59.303749999999994 -13.6675Q61.105 -15.015 64.35 -15.015Q65.8625 -15.015 67.41624999999999 -14.67125Q68.97 -14.3275 70.0425 -13.7225L68.6125 -10.67Q67.5125 -11.3025 66.44 -11.536249999999999Q65.3675 -11.77 64.35 -11.77Q62.8925 -11.77 62.24625 -11.37125Q61.6 -10.9725 61.6 -10.395Q61.6 -9.7625 62.24625 -9.473749999999999Q62.8925 -9.185 63.91 -9.033750000000001Q64.9275 -8.8825 66.06875 -8.67625Q67.21 -8.47 68.22749999999999 -8.04375Q69.245 -7.6175 69.89125 -6.7787500000000005Q70.5375 -5.94 70.5375 -4.4825Q70.5375 -2.42 68.70875 -1.0999999999999999Q66.88 0.22 63.5525 0.22ZM80.54750000000001 0.0V-1.815Q79.31 0.22 76.03750000000001 0.22Q73.42500000000001 0.22 71.9675 -1.0587499999999999Q70.51 -2.3375 70.51 -4.2625Q70.51 -6.215 71.995 -7.4525Q73.48 -8.69 76.86250000000001 -8.69H80.27250000000001Q80.27250000000001 -10.065 79.43375 -10.835Q78.59500000000001 -11.605 76.86250000000001 -11.605Q75.68 -11.605 74.53875000000001 -11.23375Q73.39750000000001 -10.8625 72.60000000000001 -10.23L71.06 -13.227500000000001Q72.27000000000001 -14.08 73.97500000000001 -14.5475Q75.68 -15.015 77.44000000000001 -15.015Q80.8225 -15.015 82.6925 -13.40625Q84.5625 -11.7975 84.5625 -8.4425V0.0ZM80.27250000000001 -4.675V-6.1875H77.33000000000001Q75.81750000000001 -6.1875 75.25375000000001 -5.6925Q74.69000000000001 -5.1975 74.69000000000001 -4.455Q74.69000000000001 -3.63 75.33625 -3.1487499999999997Q75.9825 -2.6675 77.11000000000001 -2.6675Q78.1825 -2.6675 79.035 -3.17625Q79.8875 -3.685 80.27250000000001 -4.675ZM92.785 0.22Q90.1725 0.22 88.715 -1.11375Q87.2575 -2.4475000000000002 87.2575 -5.0875V-11.495H84.975V-14.795H87.2575V-18.0675H91.5475V-14.795H95.2325V-11.495H91.5475V-5.1425Q91.5475 -4.2075000000000005 92.02875 -3.6987500000000004Q92.50999999999999 -3.19 93.39 -3.19Q94.4075 -3.19 95.1225 -3.74L96.2775 -0.715Q95.61749999999999 -0.2475 94.69624999999999 -0.013749999999999998Q93.77499999999999 0.22 92.785 0.22ZM96.9925 0.0V-20.405H101.2825V0.0ZM112.63999999999999 0.0V-1.815Q111.40249999999999 0.22 108.13 0.22Q105.5175 0.22 104.06 -1.0587499999999999Q102.60249999999999 -2.3375 102.60249999999999 -4.2625Q102.60249999999999 -6.215 104.08749999999999 -7.4525Q105.57249999999999 -8.69 108.955 -8.69H112.365Q112.365 -10.065 111.52625 -10.835Q110.6875 -11.605 108.955 -11.605Q107.7725 -11.605 106.63125 -11.23375Q105.49 -10.8625 104.6925 -10.23L103.15249999999999 -13.227500000000001Q104.3625 -14.08 106.0675 -14.5475Q107.7725 -15.015 109.5325 -15.015Q112.91499999999999 -15.015 114.785 -13.40625Q116.655 -11.7975 116.655 -8.4425V0.0ZM112.365 -4.675V-6.1875H109.4225Q107.91 -6.1875 107.34625 -5.6925Q106.7825 -5.1975 106.7825 -4.455Q106.7825 -3.63 107.42875 -3.1487499999999997Q108.07499999999999 -2.6675 109.20249999999999 -2.6675Q110.27499999999999 -2.6675 111.1275 -3.17625Q111.97999999999999 -3.685 112.365 -4.675ZM118.8275 0.0V-14.795H122.925V-13.035Q123.7775 -13.9975 125.0425 -14.506250000000001Q126.3075 -15.015 127.82 -15.015Q129.57999999999998 -15.015 130.96875 -14.31375Q132.3575 -13.6125 133.15499999999997 -12.16875Q133.9525 -10.725 133.9525 -8.47V0.0H129.6625V-7.81Q129.6625 -9.5975 128.865 -10.45Q128.0675 -11.3025 126.66499999999999 -11.3025Q125.125 -11.3025 124.12125 -10.32625Q123.11749999999999 -9.35 123.11749999999999 -7.315V0.0ZM142.175 0.22Q139.5625 0.22 138.10500000000002 -1.11375Q136.6475 -2.4475000000000002 136.6475 -5.0875V-11.495H134.365V-14.795H136.6475V-18.0675H140.9375V-14.795H144.6225V-11.495H140.9375V-5.1425Q140.9375 -4.2075000000000005 141.41875 -3.6987500000000004Q141.9 -3.19 142.78 -3.19Q143.7975 -3.19 144.51250000000002 -3.74L145.66750000000002 -0.715Q145.00750000000002 -0.2475 144.08625 -0.013749999999999998Q143.16500000000002 0.22 142.175 0.22ZM146.3825 0.0V-14.795H150.6725V0.0ZM148.5275 -16.8575Q147.345 -16.8575 146.60250000000002 -17.545Q145.86 -18.2325 145.86 -19.25Q145.86 -20.24 146.60250000000002 -20.94125Q147.345 -21.642500000000002 148.5275 -21.642500000000002Q149.71 -21.642500000000002 150.4525 -20.9825Q151.195 -20.3225 151.195 -19.3325Q151.195 -18.26 150.46625 -17.558750000000003Q149.7375 -16.8575 148.5275 -16.8575ZM160.105 0.22Q157.7125 0.22 155.8425 -0.75625Q153.9725 -1.7325 152.91375 -3.45125Q151.855 -5.17 151.855 -7.3975Q151.855 -9.625 152.91375 -11.34375Q153.9725 -13.0625 155.8425 -14.03875Q157.7125 -15.015 160.105 -15.015Q162.4425 -15.015 164.175 -14.03875Q165.9075 -13.0625 166.7325 -11.2475L163.405 -9.46Q162.8275 -10.505 161.96125 -11.0Q161.095 -11.495 160.0775 -11.495Q158.42749999999998 -11.495 157.31374999999997 -10.40875Q156.2 -9.3225 156.2 -7.3975Q156.2 -5.445 157.31374999999997 -4.3725000000000005Q158.42749999999998 -3.3 160.0775 -3.3Q161.095 -3.3 161.96125 -3.78125Q162.8275 -4.2625 163.405 -5.335L166.7325 -3.52Q165.9075 -1.76 164.175 -0.77Q162.4425 0.22 160.105 0.22Z" fill="#07223B"/>
  <path transform="translate(250,261)" d="M6.2700000000000005 0.0V-15.62H0.11V-19.25H16.885V-15.62H10.725V0.0ZM25.6025 0.0V-1.815Q24.365000000000002 0.22 21.0925 0.22Q18.48 0.22 17.0225 -1.0587499999999999Q15.565 -2.3375 15.565 -4.2625Q15.565 -6.215 17.05 -7.4525Q18.535 -8.69 21.9175 -8.69H25.3275Q25.3275 -10.065 24.48875 -10.835Q23.65 -11.605 21.9175 -11.605Q20.735 -11.605 19.59375 -11.23375Q18.4525 -10.8625 17.655 -10.23L16.115 -13.227500000000001Q17.325 -14.08 19.03 -14.5475Q20.735 -15.015 22.494999999999997 -15.015Q25.877499999999998 -15.015 27.7475 -13.40625Q29.6175 -11.7975 29.6175 -8.4425V0.0ZM25.3275 -4.675V-6.1875H22.384999999999998Q20.8725 -6.1875 20.308749999999996 -5.6925Q19.744999999999997 -5.1975 19.744999999999997 -4.455Q19.744999999999997 -3.63 20.39125 -3.1487499999999997Q21.0375 -2.6675 22.165 -2.6675Q23.237499999999997 -2.6675 24.089999999999996 -3.17625Q24.9425 -3.685 25.3275 -4.675ZM31.79 0.0V-20.405H36.08V0.0ZM45.705 0.22Q43.1475 0.22 41.25 -0.77Q39.3525 -1.76 38.307500000000005 -3.47875Q37.2625 -5.1975 37.2625 -7.3975Q37.2625 -9.625 38.29375 -11.34375Q39.325 -13.0625 41.1125 -14.03875Q42.9 -15.015 45.155 -15.015Q47.3275 -15.015 49.073750000000004 -14.08Q50.82 -13.145 51.837500000000006 -11.42625Q52.855000000000004 -9.7075 52.855000000000004 -7.3425Q52.855000000000004 -7.095 52.8275 -6.7787500000000005Q52.8 -6.4625 52.7725 -6.1875H41.58Q41.91 -4.8125 43.02375 -4.015Q44.1375 -3.2175 45.815 -3.2175Q46.9975 -3.2175 47.89125 -3.575Q48.785 -3.9325 49.5275 -4.6475L51.81 -2.1725Q49.72 0.22 45.705 0.22ZM41.5525 -8.69H48.8125Q48.5925 -10.0925 47.61625 -10.931249999999999Q46.64 -11.77 45.182500000000005 -11.77Q43.725 -11.77 42.74875 -10.931249999999999Q41.7725 -10.0925 41.5525 -8.69ZM54.01 0.0V-14.795H58.1075V-13.035Q58.96 -13.9975 60.225 -14.506250000000001Q61.49 -15.015 63.0025 -15.015Q64.7625 -15.015 66.15125 -14.31375Q67.54 -13.6125 68.3375 -12.16875Q69.135 -10.725 69.135 -8.47V0.0H64.845V-7.81Q64.845 -9.5975 64.0475 -10.45Q63.25 -11.3025 61.847500000000004 -11.3025Q60.307500000000005 -11.3025 59.30375000000001 -10.32625Q58.300000000000004 -9.35 58.300000000000004 -7.315V0.0ZM77.3575 0.22Q74.745 0.22 73.2875 -1.11375Q71.83 -2.4475000000000002 71.83 -5.0875V-11.495H69.5475V-14.795H71.83V-18.0675H76.12V-14.795H79.805V-11.495H76.12V-5.1425Q76.12 -4.2075000000000005 76.60125 -3.6987500000000004Q77.0825 -3.19 77.9625 -3.19Q78.98 -3.19 79.695 -3.74L80.85 -0.715Q80.19 -0.2475 79.26875 -0.013749999999999998Q78.3475 0.22 77.3575 0.22Z" fill="#46A4D6"/>
  <path transform="translate(250,293)" d="M2.2825 0.0V-19.25H11.6875Q15.3175 -19.25 17.146250000000002 -17.875Q18.975 -16.5 18.975 -14.245Q18.975 -12.7875 18.301250000000003 -11.715Q17.6275 -10.6425 16.445 -10.01Q18.04 -9.4875 18.98875 -8.2775Q19.9375 -7.0675 19.9375 -5.2525Q19.9375 -2.7775 17.985 -1.38875Q16.0325 0.0 12.2375 0.0ZM6.71 -3.355H11.9075Q13.64 -3.355 14.5475 -3.91875Q15.455 -4.4825 15.455 -5.72Q15.455 -8.1125 11.9075 -8.1125H6.71ZM6.71 -11.3575H11.1375Q14.4925 -11.3575 14.4925 -13.64Q14.4925 -15.895 11.1375 -15.895H6.71ZM21.3125 0.0V-14.795H25.41V-12.8425Q26.9775 -15.015 30.497500000000002 -15.015V-11.055Q29.947499999999998 -11.11 29.535 -11.11Q27.747500000000002 -11.11 26.675 -10.10625Q25.6025 -9.102500000000001 25.6025 -6.985V0.0ZM31.35 0.0V-14.795H35.64V0.0ZM33.495000000000005 -16.8575Q32.3125 -16.8575 31.57 -17.545Q30.8275 -18.2325 30.8275 -19.25Q30.8275 -20.24 31.57 -20.94125Q32.3125 -21.642500000000002 33.495000000000005 -21.642500000000002Q34.6775 -21.642500000000002 35.42 -20.9825Q36.1625 -20.3225 36.1625 -19.3325Q36.1625 -18.26 35.43375 -17.558750000000003Q34.705 -16.8575 33.495000000000005 -16.8575ZM44.275000000000006 0.22Q42.185 0.22 40.50750000000001 -0.715Q38.830000000000005 -1.65 37.853750000000005 -3.3687500000000004Q36.877500000000005 -5.0875 36.877500000000005 -7.3975Q36.877500000000005 -9.735 37.853750000000005 -11.44Q38.830000000000005 -13.145 40.50750000000001 -14.08Q42.185 -15.015 44.275000000000006 -15.015Q45.6225 -15.015 46.75 -14.575Q47.877500000000005 -14.135 48.7025 -13.227500000000001V-20.405H52.99250000000001V0.0H48.895V-1.705Q47.3275 0.22 44.275000000000006 0.22ZM45.0175 -3.3Q46.612500000000004 -3.3 47.698750000000004 -4.4Q48.785000000000004 -5.5 48.785000000000004 -7.3975Q48.785000000000004 -9.3225 47.698750000000004 -10.40875Q46.612500000000004 -11.495 45.0175 -11.495Q43.395 -11.495 42.30875 -10.40875Q41.222500000000004 -9.3225 41.222500000000004 -7.3975Q41.222500000000004 -5.5 42.30875 -4.4Q43.395 -3.3 45.0175 -3.3ZM62.205 5.555Q60.114999999999995 5.555 58.176249999999996 5.04625Q56.2375 4.5375 54.945 3.52L56.65 0.44Q57.585 1.21 59.02875 1.66375Q60.4725 2.1175 61.875 2.1175Q64.1575 2.1175 65.18875 1.1Q66.22 0.0825 66.22 -1.925V-2.5575Q65.395 -1.6225 64.19874999999999 -1.16875Q63.0025 -0.715 61.545 -0.715Q59.51 -0.715 57.832499999999996 -1.595Q56.155 -2.475 55.151250000000005 -4.0975Q54.1475 -5.72 54.1475 -7.865Q54.1475 -10.0375 55.151250000000005 -11.6325Q56.155 -13.227500000000001 57.832499999999996 -14.12125Q59.51 -15.015 61.545 -15.015Q63.085 -15.015 64.33625 -14.4925Q65.5875 -13.97 66.44 -12.925V-14.795H70.50999999999999V-2.475Q70.50999999999999 1.65 68.35125 3.6025Q66.1925 5.555 62.205 5.555ZM62.3975 -4.235Q64.075 -4.235 65.17500000000001 -5.23875Q66.275 -6.2425 66.275 -7.865Q66.275 -9.4875 65.17500000000001 -10.49125Q64.075 -11.495 62.3975 -11.495Q60.692499999999995 -11.495 59.5925 -10.49125Q58.4925 -9.4875 58.4925 -7.865Q58.4925 -6.2425 59.5925 -5.23875Q60.692499999999995 -4.235 62.3975 -4.235ZM80.135 0.22Q77.5775 0.22 75.68 -0.77Q73.7825 -1.76 72.7375 -3.47875Q71.6925 -5.1975 71.6925 -7.3975Q71.6925 -9.625 72.72375 -11.34375Q73.755 -13.0625 75.54249999999999 -14.03875Q77.33 -15.015 79.58500000000001 -15.015Q81.7575 -15.015 83.50375 -14.08Q85.25 -13.145 86.2675 -11.42625Q87.285 -9.7075 87.285 -7.3425Q87.285 -7.095 87.2575 -6.7787500000000005Q87.23 -6.4625 87.2025 -6.1875H76.01Q76.34 -4.8125 77.45375 -4.015Q78.5675 -3.2175 80.245 -3.2175Q81.4275 -3.2175 82.32124999999999 -3.575Q83.215 -3.9325 83.9575 -4.6475L86.24 -2.1725Q84.15 0.22 80.135 0.22ZM75.9825 -8.69H83.2425Q83.02250000000001 -10.0925 82.04625 -10.931249999999999Q81.07 -11.77 79.6125 -11.77Q78.155 -11.77 77.17875000000001 -10.931249999999999Q76.2025 -10.0925 75.9825 -8.69Z" fill="#07223B"/>
</svg>
